<svg xmlns="http://www.w3.org/2000/svg" class="th" viewBox="0 0 716.3 380" role="img" data-key="Digit1" data-finger="f1"><title>Digit1: kelingking kiri</title><style>
.th{--th-skin:var(--fg-dim,#6E776E);--th-line:var(--fg,#161A17);--th-accent:var(--accent,#2F6B4A);--th-ground:var(--bg,#EFF2EE)}
@media (prefers-color-scheme:dark){.th{--th-skin:var(--fg-dim,#8E988B);--th-line:var(--fg,#E7ECE3);--th-accent:var(--accent,#77B98D);--th-ground:var(--bg,#11150F)}}
.th-skin{fill:var(--th-skin);fill-opacity:.22}
.th-line{fill:none;stroke:var(--th-line);stroke-opacity:.38;stroke-width:1.5px;stroke-linecap:round;stroke-linejoin:round;vector-effect:non-scaling-stroke}
.th-glow{fill:none;stroke:var(--th-accent);stroke-opacity:.22;stroke-width:12px;stroke-linecap:round;stroke-linejoin:round;vector-effect:non-scaling-stroke}
.th-hl{fill:none;stroke:var(--th-accent);stroke-width:4px;stroke-linecap:round;stroke-linejoin:round;vector-effect:non-scaling-stroke}
</style><g class="th-hand" data-hand="left"><path class="th-skin" d="M292.3 210.4c-7.8-.6-19.2 6.1-22.4 7.8a67 67 0 0 0-14.5 14.1c-4 5.2-6 18.93-8.2 21.4-5.23 5.87-21.8 13.7-23.2 13.8s-14-12-14.1-16.2 7.8-18.9 12.5-25.7 13.5-15.5 16.8-19.1 21.9-25.4 24.5-27.4 6.5-6.4 8.4-13 3.4-15.4-4.9-18.8-19.3 7.4-22.4 10.7v-1c-3.8-15.9-14.8-20.5-17.8-21-1.52-.25-9.43-3.33-17.2-4.33-7.55-.97-14.97.13-16.3.13l-.9-.4s-10.58-4.92-16.6-5c-6.54-.09-14.87-.75-20.9.4-1.42.27 6.8-7.57 4.2-18.1-2.3-9.31-7.92-13.52-13.1-12.7-8.68 1.37-14.3 24.9-15 26.9s-13.12 29.2-13.5 31.4c-.1 1.8-6 17.5-8.6 25.7-2.6 8.3-7.5 17.2-9.7 21.6s-5.1 15.5-6.6 21-8.4 23-9.4 25.8c-1.1 2.8-9.15 30.81-10.7 40.2a272 272 0 0 1-10.5 25.5c-.5.6-4.1 10.9-11.7 25.6S19.1 384 19.1 384h115.1c4.6-13.7 15.8-30.3 18.4-34.3s11.5-13.1 19.2-17.9 17.8-7.5 30.4-10.9 24.2-3.4 32.2-5.6 14.5-14 17.1-18.4c6.39-9.58 25.7-36.5 26.7-37.8s2.6-4.7 4.6-11.1 2.07-8.17 4.2-11.6 6-5.7 8.6-9c2.69-3.4 7.55-8.07 7-10.9s-2.5-5.5-10.3-6.1m-87.1-21.5c-2.3 2.2-6.7 6.2-10.5 9.4l-.6-.9c-3.3-4.6 3.7-13.1 5.2-15.6 1.5-2.4 15.3-15.7 16.9-18.7 1.3.7 4.5.5 5.9-.4.3 1.3 3.3 4.4 3.3 4.4s-16.8 18.5-20.2 21.8"/><path class="th-line" d="M19.1 384s23.7-29.7 31.3-44.4 11.2-25 11.7-25.6 10.1-22.6 10.5-25.5 9.6-37.4 10.7-40.2 7.9-20.3 9.4-25.8 4.6-16.5 6.7-20.9M244.9 158c3.1-3.3 14.1-14.1 22.4-10.7s6.8 12.2 4.9 18.8-5.9 11-8.4 13c-2.6 2-21.2 23.8-24.5 27.4s-12.2 12.2-16.8 19-12.6 21.4-12.5 25.7 12.7 16.3 14.1 16.2 17.97-7.93 23.2-13.8c2.2-2.47 4.2-16.2 8.2-21.4s11.3-12.4 14.5-14.1 14.6-8.4 22.4-7.8 9.75 3.35 10.3 6.2-4.4 7.7-7 10.9c-2.6 3.3-6.47 5.57-8.6 9s-2.2 5.2-4.2 11.6-3.6 9.8-4.6 11.1-24.1 33.3-26.7 37.7-9.1 16.2-17.1 18.4-19.5 2.3-32.2 5.6-22.6 6.1-30.4 10.9c-7.7 4.7-16.6 13.9-19.2 17.8s-13.8 20.5-18.4 34.3m59.3-252s-12.16-5.1-18.6-5.3c-7.28-.23-21.6-1.2-25.1 3.9s-13.2 22.7-15.7 28.2-7.5 21.8-9.3 24.3m14.8 6.6c3.3-1.1 7.9-2.4 12.4-7.5s23.6-33.1 27.6-37.5 11.2-12.7 13.9-12.7c1.31 0 8.57-1.12 16.02-.17 7.86 1.01 15.94 4.11 17.48 4.37 3 .5 13.9 6.2 17.8 22-7.04 2.7-20.15 8.04-18.83 9.75 0 0-3.67-3.85-3.97-5.05-1.4 1-4.6 1.2-5.9.4-1.6 3-15.4 16.2-16.8 18.7s-8.5 11-5.2 15.6m-5.3 5.3c2.5-1.4 12.4-10.2 16.2-13.9s17.27-19.05 20.97-21.05m-71.85-40.13s6.68-9.42 5.08-18.82c-1.3-7.6-6.91-13.53-12.1-12.8-9.68 1.35-15.3 24.9-16 26.9-.8 2-10.3 23.5-11.2 25.2s-8.3 23.7-10.9 31.9c-2.6 8.3-7.5 17.2-9.7 21.6"/></g><g class="th-active" data-hand-finger="f1"><path class="th-glow" d="M156.1 125.3s4.8-7.1 3.2-16.5c-1.3-7.6-11.4-11.2-13.1-10.8-1.8.4-7 3.2-7.9 8.2-.7 3.7-6.4 14.7-7.1 16.7-.8 2-10.3 23.5-11.2 25.2s-8.3 23.7-10.9 31.9c-2.6 8.3-7.5 17.2-9.7 21.6"/><path class="th-hl" d="M156.1 125.3s4.8-7.1 3.2-16.5c-1.3-7.6-11.4-11.2-13.1-10.8-1.8.4-7 3.2-7.9 8.2-.7 3.7-6.4 14.7-7.1 16.7-.8 2-10.3 23.5-11.2 25.2s-8.3 23.7-10.9 31.9c-2.6 8.3-7.5 17.2-9.7 21.6"/></g></svg>
