<svg xmlns="http://www.w3.org/2000/svg" class="th" viewBox="0 0 716.3 380" role="img" data-key="KeyL" data-finger="f7"><title>KeyL: manis kanan</title><style>
.th{--th-skin:var(--fg-dim,#6E776E);--th-line:var(--fg,#161A17);--th-accent:var(--accent,#2F6B4A);--th-ground:var(--bg,#EFF2EE)}
@media (prefers-color-scheme:dark){.th{--th-skin:var(--fg-dim,#8E988B);--th-line:var(--fg,#E7ECE3);--th-accent:var(--accent,#77B98D);--th-ground:var(--bg,#11150F)}}
.th-skin{fill:var(--th-skin);fill-opacity:.22}
.th-line{fill:none;stroke:var(--th-line);stroke-opacity:.38;stroke-width:1.5px;stroke-linecap:round;stroke-linejoin:round;vector-effect:non-scaling-stroke}
.th-glow{fill:none;stroke:var(--th-accent);stroke-opacity:.22;stroke-width:12px;stroke-linecap:round;stroke-linejoin:round;vector-effect:non-scaling-stroke}
.th-hl{fill:none;stroke:var(--th-accent);stroke-width:4px;stroke-linecap:round;stroke-linejoin:round;vector-effect:non-scaling-stroke}
</style><g class="th-hand" data-hand="right"><path class="th-skin" d="M381.1 379.4c-3.38-5.55-17.1-19-22-24.5-3.5-3.9-5.8-7.2-10.4-13.7-9-12.7-15.8-20-18.4-23.8a19 19 0 0 1-3.3-7.2c-.1-.6-.3-1.5-.4-5.4v-9.6c-.1-3.2-.7-5.4-1.7-9.3-1.6-6.4-2.8-7.9-4.1-13.6-.67-3.4-4.38-17.4-4.7-18.8-.6-2.7-.2-4.5.8-9.7 1.5-7.8 1.8-9.5 1.8-12q0-3.7-.6-5.5c-9.83-20.5-.7-19.9 1.1-20.4 3.2-.9 5.8 0 8.3 1.2a28 28 0 0 1 12 14.9c1.1 3.2 1.3 6.1 1.5 7.7.2 2.4 0 2.9.3 5.1.3 3.2 1.1 5.4 1.6 7.1 2 6.9 2.1 12.5 2.2 12.5l-4.8-39.9.1-15.2c.2-7.6.4-7.6.6-15.3.2-6.9.1-10.7.7-17.5.4-4.7.8-7.6 2.3-10.9 1.2-2.5 2.6-5.4 5.8-7.2 3.8-2 8.3-1.6 11.5.2 2.7 1.5 4.2 3.6 5 4.9 2 3 2.4 6 2.8 9 .4 2.8.3 4.8.1 9-.2 5.8-.86 13.16-.8 16.8.06 3.75 3.8 13.3 3.8 13.3l2.5 10.4c1 4.9.9 6.5 2 15.3l1.3 9.4q1.2 7.36 3.3 14.5l2.5-1.7a927 927 0 0 1-8.2-50.1c-4.9-34.1-2.6-26.8-4-33.7 0-.2-.8-4.3-.5-9.7.3-4.7 1.2-6.3 1.6-7 2.2-3.6 6.1-4.8 7-5 .6-.2 5.8-1.6 10.5 1.4 2.5 1.6 3.7 3.6 4.9 5.8s3.2 6.4 3.5 12.5c-.1-8.6 3.2-15.6 8.3-17.5 1.1-.4 3.1-.9 5.4-.5 3.8.5 6.2 2.9 8.4 5 2.5 2.5 3.9 4.9 5.6 7.9a95 95 0 0 1 2.9 5.7c.1-1.7.6-4.6 2.5-7.5 1.1-1.6 2.4-3.6 5.2-4.6.2-.1 3.8-1.3 7.3.5q.6.1 3.1 2.6a64 64 0 0 1 12.1 26.6c3.5 13.4 5 15.2 6.5 24.1l.8 6.1q.8 5.3 1.1 14.9c.1 3.4.7 17.7.7 17.7l.9 4 1.9 8.2q1 3.6 1.7 10c.5 4.8 1.5 30.3 1.5 30.3q.5 8.4.6 12.9c.1 5.6.1 9.9-.1 18.5-.1 8.3-.3 10.1-.1 14.7a95 95 0 0 0 2.9 20.5 103 103 0 0 0 6.4 15.9z"/><path class="th-line" d="M381.1 379.4c-3.38-5.55-17.1-19-22-24.5-3.5-3.9-5.8-7.2-10.4-13.7-9-12.7-15.8-20-18.4-23.8a19 19 0 0 1-3.3-7.2c-.1-.6-.3-1.5-.4-5.4v-9.6c-.1-3.2-.7-5.4-1.7-9.3-1.6-6.4-2.8-7.9-4.1-13.6-.67-3.4-4.38-17.4-4.7-18.8-.6-2.7-.2-4.5.8-9.7 1.5-7.8 1.8-9.5 1.8-12q0-3.7-.6-5.5c-9.83-20.5-.7-19.9 1.1-20.4 3.2-.9 5.8 0 8.3 1.2a28 28 0 0 1 12 14.9c1.1 3.2 1.3 6.1 1.5 7.7.2 2.4 0 2.9.3 5.1.3 3.2 1.1 5.4 1.6 7.1 2 6.9 2.1 12.5 2.2 12.5l-4.8-39.9.1-15.2c.2-7.6.4-7.6.6-15.3.2-6.9.1-10.7.7-17.5.4-4.7.8-7.6 2.3-10.9 1.2-2.5 2.6-5.4 5.8-7.2 3.8-2 8.3-1.6 11.5.2 2.7 1.5 4.2 3.6 5 4.9 2 3 2.4 6 2.8 9 .4 2.8.3 4.8.1 9-.2 5.8-.88 13.16-.8 16.8.06 2.75 3.8 13.3 3.8 13.3l2.5 10.4c1 4.9.9 6.5 2 15.3l1.3 9.4q1.2 7.36 3.3 14.5l2.5-1.7a927 927 0 0 1-8.2-50.1c-4.9-34.1-2.6-26.8-4-33.7 0-.2-.8-4.3-.5-9.7.3-4.7 1.2-6.3 1.6-7 2.2-3.6 6.1-4.8 7-5 .6-.2 5.8-1.6 10.5 1.4 2.5 1.6 3.7 3.6 4.9 5.8s4.8 9.9 5.3 16m29-2.2c.1-1.7.4-5.3 2.3-8.2 1.1-1.6 2.4-3.6 5.2-4.6.2-.1 3.8-1.3 7.3.5q.6.1 3.1 2.6a64 64 0 0 1 12.1 26.6c3.5 13.4 5 15.2 6.5 24.1l.8 6.1q.8 5.3 1.1 14.9c.1 3.4.7 17.7.7 17.7l.9 4 1.9 8.2q1 3.6 1.7 10c.5 4.8 1.5 30.3 1.5 30.3q.5 8.4.6 12.9c.1 5.6.1 9.9-.1 18.5-.1 8.3-.3 10.1-.1 14.7a95 95 0 0 0 2.9 20.5 103 103 0 0 0 6.4 15.9m-139.7-77.8q1-5.1 2.5-8.5l-.7-14.1c-.4-8.53-.6-16.7-1.2-24.9m72.5-13.9q-2.59-5.27-3.8-11c-1.1-7-.7-6.7-1.2-13.1-.6-8-1.6-12.6-1.9-13.8-.7-3.6-.8-3-1.5-6.7-.8-4-1.3-7.7-2.5-13.3-.3-1.2-.3-2.5-1.1-3.9a53 53 0 0 1-5.2-11.5c-3.5-13.1 2.3-19.3 6.5-20.8 1.1-.4 3.1-.9 5.4-.5 3.8.5 6.2 2.9 8.4 5 2.5 2.5 3.9 4.9 5.6 7.9 1.27 2.33 3.1 6.2 3.1 6.2 5.6 11.9 9.7 22 11.4 29.5 1.5 6.7 2.1 12.6 2.5 16.3 1 9.8 2.2 19.6 2 25.7"/></g><g class="th-active" data-hand-finger="f7"><path class="th-glow" d="M417.6 240.5q-2.59-5.27-3.8-11c-1.1-7-.7-6.7-1.2-13.1-.6-8-1.6-12.6-1.9-13.8-.7-3.6-.8-3-1.5-6.7-.8-4-1.3-7.7-2.5-13.3-.3-1.2-.3-2.5-1.1-3.9a53 53 0 0 1-5.2-11.5c-3.5-13.1 2.3-19.3 6.5-20.8 1.1-.4 3.1-.9 5.4-.5 3.8.5 6.2 2.9 8.4 5 2.5 2.5 3.9 4.9 5.6 7.9a95 95 0 0 1 2.9 5.7l.2.5c5.6 11.9 9.7 22 11.4 29.5 1.5 6.7 2.1 12.6 2.5 16.3 1 9.8 2.2 19.6 2 25.7"/><path class="th-hl" d="M417.6 240.5q-2.59-5.27-3.8-11c-1.1-7-.7-6.7-1.2-13.1-.6-8-1.6-12.6-1.9-13.8-.7-3.6-.8-3-1.5-6.7-.8-4-1.3-7.7-2.5-13.3-.3-1.2-.3-2.5-1.1-3.9a53 53 0 0 1-5.2-11.5c-3.5-13.1 2.3-19.3 6.5-20.8 1.1-.4 3.1-.9 5.4-.5 3.8.5 6.2 2.9 8.4 5 2.5 2.5 3.9 4.9 5.6 7.9a95 95 0 0 1 2.9 5.7l.2.5c5.6 11.9 9.7 22 11.4 29.5 1.5 6.7 2.1 12.6 2.5 16.3 1 9.8 2.2 19.6 2 25.7"/></g></svg>
