<svg xmlns="http://www.w3.org/2000/svg" class="th" viewBox="0 0 716.3 380" role="img" data-key="Minus" data-finger="f8"><title>Minus: kelingking kanan</title><style>
.th{--th-skin:var(--fg-dim,#6E776E);--th-line:var(--fg,#161A17);--th-accent:var(--accent,#2F6B4A);--th-ground:var(--bg,#EFF2EE)}
@media (prefers-color-scheme:dark){.th{--th-skin:var(--fg-dim,#8E988B);--th-line:var(--fg,#E7ECE3);--th-accent:var(--accent,#77B98D);--th-ground:var(--bg,#11150F)}}
.th-skin{fill:var(--th-skin);fill-opacity:.22}
.th-line{fill:none;stroke:var(--th-line);stroke-opacity:.38;stroke-width:1.5px;stroke-linecap:round;stroke-linejoin:round;vector-effect:non-scaling-stroke}
.th-glow{fill:none;stroke:var(--th-accent);stroke-opacity:.22;stroke-width:12px;stroke-linecap:round;stroke-linejoin:round;vector-effect:non-scaling-stroke}
.th-hl{fill:none;stroke:var(--th-accent);stroke-width:4px;stroke-linecap:round;stroke-linejoin:round;vector-effect:non-scaling-stroke}
</style><g class="th-hand" data-hand="right"><path class="th-skin" d="M471.5 380.1c-1.8-3.2-5.7-10.4-10.6-18a70 70 0 0 0-9.3-12l-.4-.4a63 63 0 0 0-11.3-8.8c-2.8-1.9-10.9-7.1-22.9-11.9-3.7-1.5-7.7-2.8-15.8-5.4l-14.6-4.5s-3.8-1.6-17.9-6.8c-1.8-.7-7-9.9-7-9.9-2.75.98-23.39-53.23-27.3-68.6-1.3-5.08-9.93-11.09-11.4-13.3-1.51-2.2-.35-8.09 5.4-12.2a18 18 0 0 1 12.5-2.3c4.7.6 7.7 2.6 12 5.5 5.3 3.5 7.5 7.2 8.6 8.4 2.4 2.8 3.96 12.24 6.4 19 .91 2.53 11.08 18.07 12.4 25.4-.5-4.83.1-9.5-3.7-18.5l-2.8-6.4c-7.3-16-17.6-29.4-18.5-30.7s-4.2-5.7-7.6-11.7c-.4-.7-2.3-4.1-4-8.8-1.4-4-1.5-5.7-1.5-6.6 0-1.9-.4-15.27-.4-19 .1-3.4.1-5.1.5-6.4 1.14-3.84 3.87-7 7.5-8.7 4.3-1.7 8.1-.3 9.6.2 4.9 1.7 7.5 5.5 8.4 6.8 2.3 3.5 3.18 9.32 4.1 11a30 30 0 0 0 4 5.9l5.2 6.9 5 6.8q2.2 3 6.4 8.2l1.2-1.5q-.5-2.3-2-6.2c-1.6-4.2-3.5-7.2-6.2-11.5-1-1.67-8.76-11.13-9.9-12.2-2-1.9-3-3.8-3.3-4.3-.8-1.6-1.1-3.3-1.8-6.7l-.9-5.9c-.4-3.1-.5-4.6-.4-5.7.2-1.1.7-3.9 2.8-6.4.7-.9 1.5-1.4 3.1-2.5 1.4-1 2.2-1.5 4.7-2.9l4.6-2.8c3.5-1.4 6.8-.8 8.1-.5 3.7.7 6.1 2.6 8.3 4.3q3.7 3 5.2 5.3a27 27 0 0 1 3.9-8.8c1.3-1.5 2.6-2.1 4.9-3.3 2.1-1 5.1-2.5 9.3-2.8q2.4-.3 5.4.4c2.7.8 4.4 2.3 5.4 3.2q2.4 2.4 4.5 5.1c2.8 3.6 4.4 6.7 5.3 8.4 2.8 5.4 7 16.5 12 31.1.1.4-7.1-18.7-12.2-35.1q0-1-1.2-4.4-1.4-3.3-2.3-4.5c-.6-.8-2.8-4.6-4.5-10.2-1.1-3.6-2.1-7-1.1-11.1s3.4-6.7 4.5-7.9c1.4-1.5 2.4-2.6 4.2-3.2 3.6-1.1 7.1 1.5 7.7 1.9.8.6 1.4 1.4 2.6 2.8 2.1 2.6 3.4 4.8 4 5.8 1.3 2.3 2.3 4.4 4.5 9.4l3.4 8.1c5 12 4.9 12.2 6.1 14.2.9 1.5 1.9 3.1 3.1 5.9.8 1.9 3.9 10.4 4.9 13.5 1.2 3.5 1.3 4.9 2.1 8.4 1.4 5.7 3.1 9.7 5.1 14.2 2.9 6.8 3 5.3 6.4 12.9 2.6 5.9 37.2 86.9 37.2 86.9l7.8 19.1 18.7 44.2q3.4 5.4 5.3 8.8c3 5.2 4.8 8.5 6.7 13.1 1.1 2.7 1.1 3.2 2.3 6.7q3.2 8.5 5.3 12.8-52.8.7-105.8.7"/><path class="th-line" d="M487.8 175.2c2.9 6.8 43.6 99.8 43.6 99.8l7.8 19.1 18.7 44.2q3.4 5.4 5.3 8.8c3 5.2 4.8 8.5 6.7 13.1 1.1 2.7 1.1 3.2 2.3 6.7q3.2 8.5 5.3 12.8m-106 .4c-1.8-3.2-5.7-10.4-10.6-18a70 70 0 0 0-9.3-12l-.4-.4a63 63 0 0 0-11.3-8.8c-2.8-1.9-10.9-7.1-22.9-11.9-3.7-1.5-7.7-2.8-15.8-5.4l-14.6-4.5s-3.8-1.6-17.9-6.8c-1.8-.7-5.15-6.3-7-9.9-6.6-12.8-24.16-52.3-26.3-67.5-.76-5.38-10.2-11-12.4-14.3-1.51-2.2-.35-8.09 5.4-12.2a18 18 0 0 1 12.5-2.3c4.7.6 7.7 2.6 12 5.5 5.3 3.5 7.62 7.1 8.6 8.4 1.76 2.34 3.2 10.2 6.64 18.64A351 351 0 0 0 380 264s.4-9-3.4-18l-2.8-6.4c-7.3-16-17.6-29.4-18.5-30.7s-4.2-5.7-7.6-11.7c-.4-.7-2.3-4.1-4-8.8-1.4-4-1.5-5.7-1.5-6.6 0-1.9-.4-15.27-.4-19 .1-3.4.1-5.1.5-6.4 1.14-3.84 3.87-7 7.5-8.7 4.3-1.7 8.1-.3 9.6.2 4.9 1.7 7.5 5.5 8.4 6.8 2.3 3.5 2.43 7.21 3.1 9 1.2 3.2 4.07 6.63 5 7.9l5.2 6.9 5 6.8q2.2 3 6.4 8.2l1.2-1.5q-.6-2.3-2-6.2c-1.6-4.2-3.5-7.2-6.2-11.5-1-1.67-8.76-11.13-9.9-12.2-2-1.9-3-3.8-3.3-4.3-.8-1.6-1.1-3.3-1.8-6.7l-.9-5.9c-.4-3.1-.5-4.6-.4-5.7.2-1.1.7-3.9 2.8-6.4.7-.9 1.5-1.4 3.1-2.5 1.4-1 2.2-1.5 4.7-2.9l4.6-2.8c3.5-1.4 6.8-.8 8.1-.5 3.7.7 6.1 2.6 8.3 4.3q3.7 3 5.2 5.3a27 27 0 0 1 3.9-8.8c1.3-1.5 2.6-2.1 4.9-3.3 2.1-1 5.1-2.5 9.3-2.8q2.4-.3 5.4.4c2.7.8 4.4 2.3 5.4 3.2q2.4 2.4 4.5 5.1c2.8 3.6 4.4 6.7 5.3 8.4 2.8 5.4 7 16.5 12 31.1m-28.5 4.1L413.4 147c-2.4-4-4.9-8.9-7.2-12.9m40.5 5.1c-.1-.5-2.5-9.1-3.3-11.3l-1.1-2.4-1.2-2.1s-2.8-4.6-4.5-10.2c-1.1-3.6-2.1-7-1.1-11.1s3.4-6.7 4.5-7.9c1.4-1.5 2.4-2.6 4.2-3.2 3.6-1.1 7.1 1.5 7.7 1.9.8.6 1.4 1.4 2.6 2.8a53 53 0 0 1 4 5.8c1.3 2.3 2.3 4.4 4.5 9.4l3.4 8.1c5 12 4.9 12.2 6.1 14.2.9 1.5 1.9 3.1 3.1 5.9.8 1.9.9 2.5 1.9 5.5 1.5 4.4 2 4.9 3 8 1.2 3.5 1.3 4.9 2.1 8.4 1.4 5.7 3.1 9.7 5.1 14.2"/></g><g class="th-active" data-hand-finger="f8"><path class="th-glow" d="M446.7 139.2c-.1-.5-2.5-9.1-3.3-11.3l-1.1-2.4-1.2-2.1s-2.8-4.6-4.5-10.2c-1.1-3.6-2.1-7-1.1-11.1s3.4-6.7 4.5-7.9c1.4-1.5 2.4-2.6 4.2-3.2 3.6-1.1 7.1 1.5 7.7 1.9.8.6 1.4 1.4 2.6 2.8a53 53 0 0 1 4 5.8c1.3 2.3 2.3 4.4 4.5 9.4l3.4 8.1c5 12 4.9 12.2 6.1 14.2.9 1.5 1.9 3.1 3.1 5.9.8 1.9 3.9 10.4 4.9 13.5 1.2 3.5 1.3 4.9 2.1 8.4 1.4 5.7 3.1 9.7 5.1 14.2"/><path class="th-hl" d="M446.7 139.2c-.1-.5-2.5-9.1-3.3-11.3l-1.1-2.4-1.2-2.1s-2.8-4.6-4.5-10.2c-1.1-3.6-2.1-7-1.1-11.1s3.4-6.7 4.5-7.9c1.4-1.5 2.4-2.6 4.2-3.2 3.6-1.1 7.1 1.5 7.7 1.9.8.6 1.4 1.4 2.6 2.8a53 53 0 0 1 4 5.8c1.3 2.3 2.3 4.4 4.5 9.4l3.4 8.1c5 12 4.9 12.2 6.1 14.2.9 1.5 1.9 3.1 3.1 5.9.8 1.9 3.9 10.4 4.9 13.5 1.2 3.5 1.3 4.9 2.1 8.4 1.4 5.7 3.1 9.7 5.1 14.2"/></g></svg>
